<svg version="1.1" id="Layer_1" xmlns="http://www.w3.org/2000/svg" xmlns:xlink="http://www.w3.org/1999/xlink" x="0px" y="0px"
	 width="100%" viewBox="0 0 496 496" enable-background="new 0 0 496 496" xml:space="preserve">
<path fill="#000000" opacity="1.000000" stroke="none" 
	d="
M285.000000,497.000000 
	C190.000015,497.000000 95.500046,497.000000 1.000051,497.000000 
	C1.000034,331.666718 1.000034,166.333450 1.000017,1.000139 
	C166.333237,1.000093 331.666473,1.000093 496.999756,1.000046 
	C496.999847,166.333191 496.999847,331.666382 496.999939,496.999786 
	C426.500000,497.000000 356.000000,497.000000 285.000000,497.000000 
M480.626984,242.539413 
	C480.592621,227.696625 478.184052,213.134827 474.836517,198.761215 
	C469.722839,176.804123 461.461517,156.089127 450.216919,136.452637 
	C436.227478,112.022781 418.165314,91.108490 396.652863,73.245262 
	C376.693237,56.671444 354.286591,44.070789 329.879181,35.066040 
	C309.654266,27.604359 288.743164,23.027048 267.338013,21.663242 
	C254.631256,20.853647 241.784576,20.887165 228.966843,22.274790 
	C212.734406,24.032082 196.813660,26.994839 181.302155,31.992163 
	C151.870209,41.474224 125.370773,56.145020 101.827713,76.354393 
	C79.465271,95.550331 61.288486,117.948296 47.610348,144.001648 
	C34.832378,168.340408 26.590136,194.079437 23.116762,221.439148 
	C20.396963,242.862961 20.475395,264.207520 23.659458,285.468567 
	C27.932091,313.998322 37.492798,340.761566 51.932201,365.802734 
	C67.249710,392.366669 87.250984,414.780518 111.392700,433.528656 
	C130.036346,448.007080 150.633392,459.038361 172.772247,467.192963 
	C193.127167,474.690491 214.205002,479.240936 235.786530,480.469116 
	C262.788269,482.005829 289.473053,479.434174 315.561432,471.633789 
	C338.864166,464.666290 360.617004,454.481354 380.654480,440.797028 
	C399.849335,427.688141 416.566528,411.835999 431.109344,393.651825 
	C445.137421,376.111298 456.260406,356.890747 464.546234,336.091370 
	C476.372955,306.403625 481.894592,275.534424 480.626984,242.539413 
z"/>
<path fill="#000000" opacity="1.000000" stroke="none" 
	d="
M342.587738,386.613068 
	C317.174896,407.831238 288.293549,420.861755 256.116119,426.231873 
	C224.099625,431.575134 192.781494,428.137787 162.343552,416.801483 
	C156.514435,414.630463 156.402985,414.573517 158.695175,408.591797 
	C163.223969,396.773376 167.975006,385.036407 172.274078,373.135681 
	C173.726898,369.113953 175.328735,367.999054 179.491837,369.634766 
	C194.834396,375.662964 210.913681,378.705566 227.314087,378.485138 
	C250.681046,378.171173 272.835236,372.387085 292.917206,360.140839 
	C328.807587,338.254425 349.769440,306.497314 355.835205,264.739349 
	C364.098755,207.851486 331.474213,149.738953 278.315125,127.401466 
	C276.626038,126.691719 274.963257,125.856781 273.206573,125.382881 
	C268.906677,124.222893 268.376190,121.928703 269.988770,117.948830 
	C275.053650,105.448494 279.878723,92.848618 284.614258,80.218880 
	C285.779205,77.111992 287.280243,76.579712 290.237488,77.794304 
	C353.381775,103.728966 393.402374,149.829514 404.648346,217.132217 
	C415.848083,284.157990 394.258575,341.208038 342.587738,386.613068 
M392.863922,213.411041 
	C386.907349,183.624359 373.276398,157.649689 353.452728,134.857864 
	C338.262787,117.393532 319.853607,104.092537 299.057770,94.044441 
	C292.634094,90.940681 292.488556,91.038643 289.883057,97.807129 
	C288.029205,102.623009 286.375488,107.529999 284.248077,112.222046 
	C282.545441,115.977310 283.512054,117.754761 287.205536,119.464729 
	C342.429535,145.031647 374.721161,204.795029 367.111389,264.809906 
	C362.399841,301.967407 345.972046,333.292053 316.720184,357.186279 
	C291.255707,377.986816 262.051514,388.984253 228.959000,389.404572 
	C214.030502,389.594177 199.390228,388.237061 185.186172,383.469269 
	C181.748703,382.315460 180.028961,383.401764 178.876892,386.787506 
	C177.001694,392.298401 174.915695,397.759674 172.531982,403.068237 
	C170.748932,407.039124 171.965927,408.584808 175.869171,409.889526 
	C190.201920,414.680511 205.016113,416.895081 219.966141,417.516571 
	C248.232864,418.691742 275.172638,412.907959 300.671570,400.463623 
	C370.302032,366.481445 408.216827,290.148590 392.863922,213.411041 
z"/>
<path fill="#000000" opacity="1.000000" stroke="none" 
	d="
M151.599930,156.715271 
	C165.213669,134.789642 183.867798,120.538170 209.314560,116.323814 
	C225.575256,113.630798 240.764252,117.144806 254.696579,125.888458 
	C261.933716,130.430344 268.414398,135.915039 273.879120,142.519958 
	C280.374725,150.370804 289.080994,155.988983 295.337860,164.116486 
	C302.031586,172.811478 307.756470,181.817093 308.673492,193.147156 
	C309.351990,201.529999 307.072052,208.919525 301.744629,215.381378 
	C300.565643,216.811447 299.197205,218.218140 297.121490,217.760910 
	C294.840149,217.258392 293.870911,215.371597 293.772552,213.293808 
	C293.509827,207.744171 290.685852,205.831787 285.312225,206.316025 
	C277.730743,206.999237 270.361481,205.639786 263.341339,202.731461 
	C260.061401,201.372635 258.419098,202.534531 257.243256,205.575089 
	C253.896271,214.229950 254.972885,222.495956 258.944672,230.664597 
	C268.582489,250.486526 276.795532,270.830963 280.767303,292.642090 
	C283.494568,307.618866 284.668732,322.654938 281.430786,337.725922 
	C280.538025,341.881287 280.803925,345.961487 281.789520,350.029388 
	C282.519623,353.042694 282.619080,356.187073 278.985413,356.859711 
	C275.387634,357.525635 275.012939,354.391815 274.555389,351.618469 
	C273.010620,342.254974 268.095612,334.382416 263.670807,326.353607 
	C261.647247,326.930054 261.449585,328.423859 260.808655,329.517120 
	C254.356583,340.523132 244.026627,345.283936 232.041428,347.131989 
	C227.496964,347.832672 225.770706,345.493225 226.768921,340.672821 
	C227.658234,336.378326 229.612610,332.195801 227.954391,326.854462 
	C222.111420,330.369202 216.407364,333.304993 210.035019,334.688934 
	C205.712936,335.627625 201.400650,335.548889 197.116791,335.141052 
	C192.468964,334.698578 191.342056,332.047333 193.558090,327.784485 
	C198.197205,318.860504 199.002213,315.726166 198.146210,309.890289 
	C196.745926,308.782257 195.627823,309.909912 194.515411,310.456299 
	C185.185852,315.038666 175.293518,316.757111 164.977875,316.346283 
	C160.007324,316.148376 158.693848,314.325775 160.539444,309.609894 
	C162.800156,303.833374 164.001678,297.898712 164.381866,291.882294 
	C162.747116,290.419647 161.312286,291.258789 159.993164,291.803558 
	C152.844559,294.755646 145.264603,295.853546 137.711807,297.043945 
	C135.423813,297.404572 132.832458,297.852905 131.248184,295.610474 
	C129.662979,293.366730 130.953918,291.215851 132.110275,289.109375 
	C134.318970,285.085938 136.612778,281.060760 136.761841,275.462433 
	C130.734436,276.720856 125.159012,276.358917 119.648056,275.044647 
	C117.121307,274.441986 116.115959,276.321777 114.952721,277.950897 
	C108.447357,287.061737 102.851051,296.695679 98.235405,306.898682 
	C97.619064,308.261139 96.987236,309.634094 96.189331,310.892303 
	C95.250717,312.372437 93.933960,313.475403 92.025993,312.803955 
	C89.938004,312.069183 89.386322,310.317657 89.782425,308.350677 
	C90.074196,306.901733 90.647743,305.489624 91.241669,304.124603 
	C96.045860,293.082977 102.042000,282.707825 109.114616,272.979156 
	C111.421844,269.805481 112.763031,266.415680 113.736084,262.633240 
	C122.626274,228.075409 134.187958,194.433395 148.786072,161.856033 
	C149.532578,160.190125 150.537231,158.639893 151.599930,156.715271 
M228.417786,245.162186 
	C228.729675,246.095200 229.158569,247.006516 229.336060,247.964417 
	C232.364899,264.311615 238.594147,279.205200 249.401962,291.991394 
	C258.039429,302.209961 265.594940,313.151093 271.915894,324.949829 
	C272.545868,326.125732 272.685913,327.922668 275.118896,328.009460 
	C276.317444,318.166840 275.697937,308.449432 274.173584,298.770386 
	C270.586548,275.994446 262.167328,254.854095 252.115601,234.285675 
	C246.696442,223.196655 245.898590,211.950882 250.963043,200.561035 
	C252.029709,198.162125 251.709671,196.718170 249.720596,194.981613 
	C244.336700,190.281204 239.205048,185.361191 232.056702,183.241638 
	C229.192154,182.392273 226.812637,180.357559 224.631897,178.269608 
	C223.517365,177.202499 222.679413,175.924637 223.315903,174.266785 
	C223.990997,172.508377 225.360138,171.699387 227.210892,171.713867 
	C228.374939,171.722992 229.560043,171.677322 230.698853,171.871857 
	C242.814713,173.941605 253.137482,170.283142 261.618042,161.685318 
	C272.788055,150.360901 274.074799,153.135391 261.772797,140.920517 
	C243.428574,122.706215 218.109253,118.412567 194.381439,128.677856 
	C176.805649,136.281616 163.544571,148.611542 155.486618,165.827820 
	C140.983383,196.814850 130.696701,229.357681 121.468307,262.244385 
	C120.304642,266.391266 122.117989,268.140900 125.989693,268.477509 
	C135.376831,269.293640 143.498993,266.918701 149.399185,259.065002 
	C150.845383,257.139984 152.618683,255.849960 154.898270,257.376953 
	C157.351410,259.020203 156.954361,261.278107 155.508423,263.501740 
	C153.849838,266.052338 151.687637,268.121796 149.311691,269.970978 
	C143.260040,274.681030 144.584213,281.949005 141.484100,289.144806 
	C147.371140,287.591400 151.799469,286.786377 155.955505,285.246460 
	C163.363754,282.501556 169.964264,278.758026 170.831604,269.597961 
	C171.032578,267.475647 172.653854,266.474762 174.772308,266.611084 
	C177.320251,266.775024 178.197250,268.617554 178.166946,270.756226 
	C178.111588,274.663025 176.941376,278.291199 174.621490,281.489594 
	C173.438629,283.120361 172.352524,284.749084 172.315811,286.899506 
	C172.213257,292.905365 171.494354,298.856476 170.118103,304.694153 
	C169.286942,308.219666 171.066956,308.950409 173.851456,308.560974 
	C176.808136,308.147461 179.759644,307.559784 182.643387,306.786835 
	C192.757797,304.075989 200.869232,299.269318 202.103149,287.535156 
	C202.171600,286.884308 202.453659,286.250824 202.672806,285.621979 
	C203.291092,283.847687 204.521713,282.751221 206.425705,283.032715 
	C208.307266,283.310944 209.278275,284.658752 209.317871,286.559174 
	C209.369766,289.049744 209.725525,291.611847 208.684448,293.969757 
	C204.005112,304.567780 208.512589,316.503754 202.764496,326.929779 
	C210.238388,328.046173 224.654633,321.455383 227.857132,316.114594 
	C228.889877,314.392242 228.628464,312.633026 228.243896,310.801666 
	C227.181183,305.740540 225.836853,300.768433 223.779678,296.012726 
	C222.689957,293.493530 222.972290,291.294159 225.646866,290.180573 
	C228.288025,289.080933 229.582993,291.077148 230.684052,293.037384 
	C231.007141,293.612549 231.192154,294.265625 231.437042,294.884338 
	C236.509842,307.700317 238.101547,320.904633 235.812653,334.529022 
	C235.618668,335.683655 235.138428,336.807495 236.778366,338.024353 
	C244.719925,336.271881 250.951508,331.927307 254.744843,324.227020 
	C257.325348,318.988739 257.398560,314.142761 253.324570,309.421417 
	C249.411087,304.886078 245.930679,299.980164 242.154938,295.322205 
	C231.301117,281.932404 224.921814,266.568420 221.975067,249.702316 
	C221.157242,245.021393 223.073563,243.441147 228.417786,245.162186 
M267.444244,166.965195 
	C262.560516,172.623016 255.560562,175.392746 249.290985,179.292709 
	C251.102036,181.488678 252.919525,181.549484 254.759796,181.651291 
	C260.231201,181.953995 265.705078,182.236893 271.168518,182.652252 
	C282.793213,183.536041 291.675964,188.744324 297.124786,199.303787 
	C297.811310,200.634216 297.998138,202.428772 300.179352,203.197586 
	C300.834106,199.453751 301.814941,196.310760 301.174805,192.631302 
	C299.420593,182.548141 294.415314,174.221878 287.636658,167.001328 
	C275.661865,154.245941 278.942139,156.349243 268.319794,166.136642 
	C268.197601,166.249252 268.078400,166.365128 267.444244,166.965195 
M270.511963,197.013489 
	C275.446136,198.090759 280.354736,199.693298 285.556274,198.049850 
	C282.599335,190.420135 269.326752,189.282104 257.418793,190.183136 
	C261.063202,193.572128 265.353760,195.266281 270.511963,197.013489 
z"/>
<path fill="#000000" opacity="1.000000" stroke="none" 
	d="
M146.055603,203.208160 
	C151.390121,187.926590 156.303802,172.885086 165.108505,159.555862 
	C166.753799,157.065079 168.598145,154.691147 170.509125,152.395203 
	C172.011993,150.589569 173.749695,148.632401 176.346970,150.722305 
	C178.930023,152.800781 178.131073,155.117065 176.350662,157.244095 
	C167.546295,167.762482 162.432175,180.207687 157.731140,192.861221 
	C155.764084,198.155838 153.961441,203.511490 152.078796,208.837524 
	C151.096161,211.617462 149.965027,214.595444 146.207916,213.160522 
	C142.633865,211.795502 144.020859,208.901398 144.860657,206.375992 
	C145.175247,205.429993 145.554047,204.505325 146.055603,203.208160 
z"/>
<path fill="#000000" opacity="1.000000" stroke="none" 
	d="
M255.435715,151.567184 
	C249.800873,155.222458 245.270844,159.657837 240.480209,163.905167 
	C234.931549,168.824554 226.628113,166.132416 222.639282,159.417068 
	C221.541183,157.568375 220.640106,155.950302 218.409103,154.903214 
	C215.360718,153.472534 215.381729,150.151733 218.306198,148.098190 
	C222.696030,145.015686 227.686768,143.686417 232.949921,145.181717 
	C239.032272,146.909698 244.911209,148.894928 251.444199,147.011902 
	C254.073990,146.253906 255.724686,148.273270 255.435715,151.567184 
M229.801407,156.096390 
	C232.303314,158.922211 234.696518,159.749481 237.025436,155.945786 
	C235.696426,153.848892 233.764648,153.271469 231.855774,152.835175 
	C229.591217,152.317596 228.714142,153.292740 229.801407,156.096390 
z"/>
<path fill="#000000" opacity="1.000000" stroke="none" 
	d="
M181.209167,149.393066 
	C178.408340,148.007233 178.043030,145.950958 179.497009,143.918106 
	C181.069077,141.720200 183.332886,139.805664 186.248810,140.851883 
	C189.148254,141.892151 189.048569,144.374832 187.522446,146.556549 
	C186.152451,148.515045 184.168152,149.759735 181.209167,149.393066 
z"/>
</svg>